<svg viewBox="0 0 94 26" fill="none" xmlns="http://www.w3.org/2000/svg" class="h-auto w-[94px]"><path d="M15.666 12.079c-.025-2.744 2.246-4.078 2.35-4.14-1.286-1.876-3.28-2.132-3.98-2.152-1.675-.176-3.299 1.002-4.152 1.002-.87 0-2.183-.985-3.599-.956-1.821.028-3.525 1.082-4.46 2.72-1.929 3.34-.49 8.247 1.358 10.946.924 1.322 2.004 2.798 3.418 2.746 1.383-.057 1.9-.882 3.57-.882 1.653 0 2.138.882 3.58.849 1.485-.024 2.42-1.328 3.312-2.662 1.068-1.515 1.497-3.007 1.514-3.084-.035-.012-2.883-1.099-2.911-4.387ZM12.942 4.011c.744-.93 1.253-2.196 1.111-3.48-1.076.047-2.423.744-3.198 1.654-.686.802-1.3 2.116-1.141 3.352 1.21.09 2.451-.61 3.228-1.526ZM35.683 22.055H33.75l-1.059-3.327h-3.68l-1.009 3.327H26.12l3.647-11.328h2.252l3.664 11.328Zm-3.31-4.723-.958-2.958c-.102-.302-.291-1.014-.572-2.134h-.034a82.143 82.143 0 0 1-.538 2.134l-.94 2.958h3.041ZM45.061 17.87c0 1.39-.375 2.488-1.126 3.294-.673.717-1.508 1.076-2.504 1.076-1.076 0-1.85-.387-2.32-1.16h-.034v4.303h-1.815v-8.807c0-.873-.023-1.77-.067-2.689h1.596l.101 1.295h.034c.606-.976 1.524-1.463 2.757-1.463.963 0 1.768.38 2.411 1.143.645.762.967 1.765.967 3.009Zm-1.849.067c0-.795-.179-1.45-.538-1.966-.392-.538-.919-.807-1.58-.807-.447 0-.854.15-1.218.445a2.065 2.065 0 0 0-.714 1.169 2.376 2.376 0 0 0-.084.553v1.362c0 .594.182 1.095.546 1.505.365.41.838.613 1.42.613.684 0 1.216-.263 1.596-.79.382-.526.572-1.22.572-2.084ZM54.456 17.87c0 1.39-.376 2.488-1.127 3.294-.672.717-1.507 1.076-2.504 1.076-1.076 0-1.849-.387-2.318-1.16h-.034v4.303h-1.815v-8.807c0-.873-.023-1.77-.067-2.689h1.596l.1 1.295h.035c.604-.976 1.523-1.463 2.756-1.463.963 0 1.767.38 2.412 1.143.643.762.966 1.765.966 3.009Zm-1.85.067c0-.795-.179-1.45-.538-1.966-.392-.538-.917-.807-1.579-.807-.448 0-.854.15-1.219.445a2.064 2.064 0 0 0-.713 1.169 2.42 2.42 0 0 0-.084.553v1.362c0 .594.182 1.095.544 1.505.365.408.838.613 1.422.613.683 0 1.215-.263 1.596-.79.381-.526.572-1.22.572-2.084ZM64.96 18.878c0 .964-.335 1.748-1.007 2.353-.738.661-1.765.992-3.085.992-1.22 0-2.196-.235-2.936-.706l.42-1.512c.797.481 1.671.723 2.624.723.683 0 1.215-.155 1.598-.463.38-.308.57-.722.57-1.238 0-.46-.157-.847-.47-1.16-.313-.315-.835-.607-1.564-.877-1.983-.74-2.974-1.823-2.974-3.248 0-.931.348-1.695 1.043-2.289.693-.595 1.617-.892 2.773-.892 1.031 0 1.887.18 2.57.538l-.453 1.48c-.638-.348-1.36-.521-2.168-.521-.638 0-1.137.157-1.495.47-.302.28-.453.622-.453 1.026 0 .448.173.818.52 1.11.302.268.851.56 1.648.873.974.393 1.69.852 2.15 1.378.46.524.689 1.18.689 1.963ZM70.96 15.249h-2v3.966c0 1.008.352 1.512 1.058 1.512.325 0 .594-.028.806-.084l.05 1.378c-.357.134-.828.2-1.41.2-.718 0-1.278-.218-1.682-.654-.403-.438-.605-1.172-.605-2.203v-4.117h-1.192v-1.362h1.192V12.39l1.782-.538v2.033h2v1.364ZM79.985 17.904c0 1.255-.36 2.286-1.076 3.092-.752.83-1.75 1.244-2.993 1.244-1.198 0-2.153-.398-2.864-1.193-.712-.795-1.068-1.798-1.068-3.008 0-1.266.367-2.302 1.101-3.108.733-.807 1.722-1.21 2.966-1.21 1.198 0 2.163.397 2.89 1.193.697.772 1.044 1.768 1.044 2.99Zm-1.883.058c0-.753-.16-1.399-.487-1.938-.38-.652-.924-.977-1.629-.977-.73 0-1.284.326-1.664.977-.326.54-.487 1.196-.487 1.973 0 .753.16 1.399.487 1.937.392.652.94.977 1.648.977.693 0 1.237-.332 1.629-.994.334-.55.503-1.202.503-1.955ZM85.884 15.483a3.151 3.151 0 0 0-.572-.05c-.638 0-1.132.24-1.48.723-.302.426-.453.964-.453 1.613v4.286h-1.814l.017-5.596c0-.941-.023-1.798-.068-2.571h1.58l.067 1.563h.05c.192-.537.494-.97.907-1.294a2.194 2.194 0 0 1 1.312-.438c.168 0 .32.012.454.034v1.73ZM94 17.585c0 .325-.021.599-.066.823h-5.445c.022.807.285 1.424.79 1.85.46.38 1.052.57 1.781.57.806 0 1.541-.128 2.203-.386l.284 1.26c-.773.337-1.685.505-2.738.505-1.267 0-2.26-.373-2.984-1.118-.722-.745-1.084-1.745-1.084-3 0-1.231.336-2.257 1.01-3.075.704-.873 1.657-1.31 2.855-1.31 1.178 0 2.069.437 2.674 1.31.48.694.72 1.552.72 2.57Zm-1.73-.471c.011-.538-.107-1.003-.353-1.395-.314-.505-.797-.757-1.446-.757-.593 0-1.076.246-1.445.74-.302.392-.481.863-.537 1.411h3.78ZM31.772 3.759c0 1.002-.3 1.756-.9 2.262-.556.467-1.346.702-2.37.702-.507 0-.94-.023-1.304-.067V1.182a9.628 9.628 0 0 1 1.536-.116c.975 0 1.71.212 2.205.636.555.48.833 1.165.833 2.057Zm-.94.024c0-.65-.172-1.147-.516-1.494-.344-.347-.846-.52-1.508-.52-.28 0-.52.018-.718.057v4.162c.11.017.31.025.602.025.683 0 1.21-.19 1.581-.57.371-.38.558-.933.558-1.66ZM36.76 4.634c0 .617-.177 1.122-.53 1.52-.369.407-.858.61-1.47.61-.588 0-1.057-.195-1.407-.586-.35-.39-.524-.884-.524-1.478 0-.621.18-1.131.54-1.527.362-.396.847-.594 1.458-.594.59 0 1.062.195 1.42.586.341.38.512.87.512 1.469Zm-.926.029c0-.37-.08-.688-.24-.953-.186-.32-.453-.48-.8-.48-.358 0-.63.16-.817.48-.16.265-.24.587-.24.969 0 .37.08.688.24.952.193.32.462.48.81.48.34 0 .607-.162.8-.488.164-.27.247-.59.247-.96ZM43.446 2.66l-1.255 4.013h-.817l-.52-1.742c-.132-.435-.24-.868-.323-1.297h-.016c-.078.441-.185.873-.323 1.297l-.552 1.742h-.827l-1.18-4.012h.916l.454 1.907c.11.451.2.881.272 1.288h.017c.066-.335.176-.763.33-1.28l.57-1.915h.727l.546 1.875c.132.457.239.897.321 1.32h.025c.06-.412.152-.852.273-1.32l.486-1.875h.876ZM48.071 6.673h-.892V4.375c0-.708-.269-1.062-.809-1.062a.805.805 0 0 0-.644.292 1.036 1.036 0 0 0-.248.687v2.38h-.892V3.807c0-.352-.01-.734-.032-1.148h.784l.041.627h.025c.104-.195.259-.356.462-.484.242-.15.513-.226.809-.226.375 0 .686.121.934.364.308.297.462.74.462 1.33v2.403ZM50.531 6.673h-.891V.82h.891v5.854ZM55.783 4.634c0 .617-.176 1.122-.529 1.52-.37.407-.86.61-1.47.61-.59 0-1.059-.195-1.408-.586-.349-.39-.523-.884-.523-1.478 0-.621.18-1.131.54-1.527.361-.396.846-.594 1.457-.594.59 0 1.062.195 1.421.586.34.38.512.87.512 1.469Zm-.926.029c0-.37-.08-.688-.24-.953-.186-.32-.453-.48-.799-.48-.359 0-.631.16-.818.48-.16.265-.239.587-.239.969 0 .37.08.688.24.952.192.32.461.48.809.48.34 0 .607-.162.799-.488.166-.27.248-.59.248-.96ZM60.1 6.673h-.8l-.067-.462h-.025c-.274.369-.665.553-1.172.553-.379 0-.685-.121-.916-.363a1.14 1.14 0 0 1-.314-.817c0-.49.204-.864.615-1.123.41-.259.988-.386 1.73-.38v-.075c0-.528-.277-.792-.832-.792-.396 0-.745.1-1.047.297l-.18-.586c.372-.23.833-.346 1.376-.346 1.048 0 1.574.553 1.574 1.66v1.477c0 .401.02.72.058.957Zm-.926-1.379v-.619c-.984-.017-1.476.253-1.476.809 0 .21.056.366.171.47a.624.624 0 0 0 .436.157.9.9 0 0 0 .546-.185.76.76 0 0 0 .323-.632ZM65.169 6.673h-.792l-.041-.644h-.025c-.253.49-.684.735-1.289.735a1.51 1.51 0 0 1-1.205-.57c-.32-.379-.478-.872-.478-1.477 0-.65.172-1.175.52-1.577a1.599 1.599 0 0 1 1.238-.562c.539 0 .916.181 1.13.545h.018V.819h.892v4.773c0 .39.01.75.032 1.081Zm-.924-1.692v-.67a1.016 1.016 0 0 0-.347-.821.877.877 0 0 0-.597-.218.916.916 0 0 0-.785.396c-.19.265-.286.603-.286 1.016 0 .397.09.718.274.966a.918.918 0 0 0 .78.396.86.86 0 0 0 .704-.33 1.1 1.1 0 0 0 .257-.735ZM72.798 4.634c0 .617-.176 1.122-.528 1.52-.37.407-.858.61-1.47.61-.588 0-1.057-.195-1.408-.586-.35-.39-.524-.884-.524-1.478 0-.621.18-1.131.54-1.527.362-.396.847-.594 1.459-.594.588 0 1.062.195 1.42.586.34.38.511.87.511 1.469Zm-.924.029c0-.37-.08-.688-.24-.953-.187-.32-.453-.48-.8-.48-.358 0-.63.16-.818.48-.16.265-.24.587-.24.969 0 .37.08.688.24.952.193.32.462.48.81.48.34 0 .608-.162.8-.488.164-.27.248-.59.248-.96ZM77.595 6.673h-.891V4.375c0-.708-.27-1.062-.81-1.062a.802.802 0 0 0-.643.292 1.032 1.032 0 0 0-.248.687v2.38h-.893V3.807c0-.352-.01-.734-.031-1.148h.783l.041.627h.025c.105-.195.26-.356.462-.484a1.51 1.51 0 0 1 .81-.226c.373 0 .685.121.933.364.309.297.462.74.462 1.33v2.403ZM83.599 3.329h-.983v1.95c0 .494.175.742.52.742.16 0 .293-.013.398-.042l.023.677c-.176.067-.408.1-.693.1-.353 0-.627-.107-.825-.322-.2-.215-.298-.575-.298-1.082V3.33h-.586V2.66h.586v-.736l.874-.264v.999h.983v.669ZM88.32 6.673h-.892V4.392c0-.72-.269-1.08-.808-1.08-.413 0-.696.21-.851.626a1.12 1.12 0 0 0-.042.321v2.413h-.89V.82h.89v2.419h.017c.281-.44.684-.66 1.206-.66.369 0 .675.12.917.364.302.302.454.751.454 1.345v2.386ZM93.192 4.477c0 .16-.012.295-.033.404h-2.675c.012.397.14.7.387.909.227.187.518.28.876.28.396 0 .757-.062 1.082-.19l.14.62c-.381.166-.829.248-1.347.248-.622 0-1.111-.183-1.465-.549-.356-.366-.532-.857-.532-1.473 0-.606.164-1.11.495-1.511.346-.43.813-.644 1.403-.644.577 0 1.016.215 1.312.644.239.34.357.762.357 1.262Zm-.85-.23a1.202 1.202 0 0 0-.174-.686c-.155-.247-.39-.372-.71-.372a.847.847 0 0 0-.71.364 1.351 1.351 0 0 0-.264.693h1.857Z" fill="#fff"></path></svg>