<?xml version="1.0" encoding="UTF-8"?><svg id="Camada_2" xmlns="http://www.w3.org/2000/svg" viewBox="0 0 274.92 51.87"><defs><style>.cls-1{fill:#f2f2f2;}</style></defs><g id="Camada_1-2"><g id="Camada_2-2"><g id="Layer_6"><g><path class="cls-1" d="M59.21,35.63l2.95-5.97c2.59,1.78,5.66,2.75,8.81,2.78,2.87,0,4.54-.97,4.54-2.5,0-3.79-12.85-1.69-12.85-10.57,0-6.09,4.88-10.09,12.7-10.09,3.74,0,7.15,.85,9.53,2.42l-2.72,5.93c-2.15-1.42-4.68-2.17-7.26-2.15-3.1,0-4.76,1.21-4.76,2.74-.04,3.87,12.85,1.65,12.85,10.37,0,6.05-4.99,10.05-12.74,10.05-4.54,.01-8.66-1.28-11.04-3.01Z"/><path class="cls-1" d="M94.19,16.18h-8.13l1.21-6.33h23.71l-1.21,6.33h-8.09l-4.12,21.91h-7.49l4.12-21.91Z"/><path class="cls-1" d="M126.22,32.6h-11.27l-3.07,5.49h-7.89l16.97-28.24h7.38l6.39,28.24h-7.45l-1.06-5.49Zm-1.13-5.89l-1.78-9.16-5.07,9.16h6.85Z"/><path class="cls-1" d="M145.28,16.18h-8.13l1.21-6.33h23.71l-1.21,6.33h-8.09l-4.12,21.91h-7.49l4.12-21.91Z"/><path class="cls-1" d="M171.66,16.18h-8.13l1.21-6.33h23.71l-1.21,6.33h-8.09l-4.12,21.91h-7.5l4.13-21.91Z"/><path class="cls-1" d="M205.88,29.62l4.5,8.47h-7.81l-3.93-7.51h-3.78l-1.4,7.51h-7.5l5.3-28.24h11.32c6.76,0,10.66,3.35,10.66,9-.02,5.22-2.74,9.08-7.35,10.77Zm-4.39-13.48h-3.93l-1.59,8.27h4.46c3.29,0,5.23-1.69,5.23-4.8-.02-2.38-1.6-3.47-4.17-3.47Z"/><path class="cls-1" d="M233,32.6h-11.28l-3.07,5.49h-7.89l16.98-28.24h7.38l6.39,28.24h-7.45l-1.05-5.49Zm-1.13-5.89l-1.78-9.16-5.08,9.16h6.86Z"/><path class="cls-1" d="M261.31,22.84l8.88,15.26h-8.35l-6.09-10.17-3.44,3.31-1.29,6.86h-7.38l5.29-28.24h7.38l-2.15,11.54,11.95-11.54h8.81l-13.61,12.99Z"/></g></g></g></g><g id="Camada_2-3"><g><polygon class="cls-1" points="29.44 1.36 17.62 8.18 7.46 14.04 2.34 26.71 12.51 20.84 0 51.87 11.82 45.04 24.33 14.02 29.44 1.36"/><polygon class="cls-1" points="14.52 43.48 25.3 37.26 32.71 18.89 43.49 12.67 48.6 0 27.03 12.45 14.52 43.48"/></g></g></svg>