<svg xmlns="http://www.w3.org/2000/svg" xmlns:xlink="http://www.w3.org/1999/xlink" viewBox="0 0 1057.38 368.87"><defs><style>.cls-1{fill:#141414;}.cls-2{fill:url(#linear-gradient);}.cls-3{fill:url(#linear-gradient-2);}.cls-4{fill:url(#linear-gradient-3);}.cls-5{fill:url(#linear-gradient-4);}</style><linearGradient id="linear-gradient" x1="429.73" y1="-62.06" x2="-30.93" y2="285.08" gradientUnits="userSpaceOnUse"><stop offset="0" stop-color="#6656a0"/><stop offset="0.16" stop-color="#6a549b"/><stop offset="0.36" stop-color="#764e8b"/><stop offset="0.58" stop-color="#8a4471"/><stop offset="0.81" stop-color="#a5364e"/><stop offset="1" stop-color="#c0282b"/></linearGradient><linearGradient id="linear-gradient-2" x1="-14.69" y1="285.05" x2="343.31" y2="-37.22" gradientUnits="userSpaceOnUse"><stop offset="0" stop-color="#cd2d59"/><stop offset="1" stop-color="#d5652d"/></linearGradient><linearGradient id="linear-gradient-3" x1="456.28" y1="-26.83" x2="-4.39" y2="320.3" xlink:href="#linear-gradient"/><linearGradient id="linear-gradient-4" x1="21.34" y1="325.07" x2="379.34" y2="2.81" xlink:href="#linear-gradient-2"/></defs><title>logo_laranja_stattrak</title><g id="Layer_2" data-name="Layer 2"><g id="Layer_6" data-name="Layer 6"><path class="cls-1" d="M377.76,221.71a50.66,50.66,0,0,1-15.62-7.09l9.59-19.43a51.6,51.6,0,0,0,13.9,6.76,49.41,49.41,0,0,0,14.76,2.3q7,0,10.89-2.17t3.87-6q0-3.28-3.51-5.12a61.13,61.13,0,0,0-10.89-3.94,108.81,108.81,0,0,1-13.9-4.79,24.94,24.94,0,0,1-9.53-7.42q-4-5-4-13.12a29.93,29.93,0,0,1,5-17.26A32.6,32.6,0,0,1,392.76,133q9.35-4.07,21.9-4.07a69.71,69.71,0,0,1,17.22,2,45.15,45.15,0,0,1,13.78,5.84l-8.86,19.29a39.39,39.39,0,0,0-11.13-5.18,44.49,44.49,0,0,0-12.49-1.77q-7.26,0-11.38,2.49t-4.12,6.43q0,3.41,3.57,5.25a62.55,62.55,0,0,0,11.07,3.94,102.22,102.22,0,0,1,13.84,4.59,24.52,24.52,0,0,1,9.41,7.22q3.94,4.86,3.94,12.73a29.47,29.47,0,0,1-5.11,17.13,33,33,0,0,1-14.51,11.48,54.65,54.65,0,0,1-21.83,4.07A73.16,73.16,0,0,1,377.76,221.71Z"/><path class="cls-1" d="M475.92,151.36H449.47l3.94-20.61h77.13l-3.94,20.61H500.27l-13.41,71.27H462.51Z"/><path class="cls-1" d="M580.11,204.78H543.45l-10,17.85H507.78L563,130.75h24l20.79,91.88H583.55Zm-3.69-19.16-5.78-29.79-16.48,29.79Z"/><path class="cls-1" d="M642.11,151.36H615.66l3.94-20.61h77.13l-3.94,20.61H666.46l-13.41,71.27H628.7Z"/><path class="cls-1" d="M721.45,151.36H695l3.94-20.61h77.13l-3.94,20.61H745.8l-13.41,71.27H708Z"/><path class="cls-1" d="M850.36,181.74a35.77,35.77,0,0,1-17.59,13.32l14.64,27.56H821.95l-12.79-24.41h-12.3l-4.55,24.41H767.94l17.22-91.87h36.78q16.48,0,25.59,7.74t9.1,21.52Q856.63,172.62,850.36,181.74ZM828.46,154q-3.57-2.82-10-2.82H805.71l-5.17,26.91h14.52q8.12,0,12.55-4.07T832,162.51Q832,156.87,828.46,154Z"/><path class="cls-1" d="M921,204.78H884.31l-10,17.85H848.64l55.23-91.87h24l20.79,91.88H924.41Zm-3.69-19.16-5.78-29.79L895,185.61Z"/><path class="cls-1" d="M1013.1,173,1042,222.63h-27.19L995,189.55l-11.19,10.76-4.18,22.31h-24l17.22-91.87h24l-7,37.54,38.87-37.54h28.66Z"/><polygon class="cls-2" points="209.35 9.64 125.28 58.18 53.05 99.88 16.65 189.97 88.97 148.22 0 368.87 84.07 320.32 173.05 99.68 209.35 9.64"/><polygon class="cls-3" points="209.35 9.64 125.28 58.18 53.05 99.88 16.65 189.97 88.97 148.22 0 368.87 84.07 320.32 173.05 99.68 209.35 9.64"/><polygon class="cls-4" points="103.24 309.26 179.95 264.97 232.61 134.37 309.32 90.08 345.64 0 192.23 88.57 103.24 309.26"/><polygon class="cls-5" points="103.24 309.26 179.95 264.97 232.61 134.37 309.32 90.08 345.64 0 192.23 88.57 103.24 309.26"/></g></g></svg>