<svg viewBox="0 0 95 24" fill="none" xmlns="http://www.w3.org/2000/svg" class="h-auto w-[94px]"><defs><linearGradient id="play_store_svg__play_store_paint0_linear" x1="9.714" y1="2.297" x2="-6.49" y2="6.614" gradientUnits="userSpaceOnUse"><stop stop-color="#00A0FF"></stop><stop offset=".007" stop-color="#00A1FF"></stop><stop offset=".26" stop-color="#00BEFF"></stop><stop offset=".512" stop-color="#00D2FF"></stop><stop offset=".76" stop-color="#00DFFF"></stop><stop offset="1" stop-color="#00E3FF"></stop></linearGradient><linearGradient id="play_store_svg__play_store_paint1_linear" x1="19.541" y1="11.518" x2="-.216" y2="11.518" gradientUnits="userSpaceOnUse"><stop stop-color="#FFE000"></stop><stop offset=".409" stop-color="#FFBD00"></stop><stop offset=".775" stop-color="orange"></stop><stop offset="1" stop-color="#FF9C00"></stop></linearGradient><linearGradient id="play_store_svg__play_store_paint2_linear" x1="12.186" y1="13.394" x2="-.822" y2="35.288" gradientUnits="userSpaceOnUse"><stop stop-color="#FF3A44"></stop><stop offset="1" stop-color="#C31162"></stop></linearGradient><linearGradient id="play_store_svg__play_store_paint3_linear" x1="-2.129" y1="-4.667" x2="3.675" y2="5.112" gradientUnits="userSpaceOnUse"><stop stop-color="#32A071"></stop><stop offset=".069" stop-color="#2DA771"></stop><stop offset=".476" stop-color="#15CF74"></stop><stop offset=".801" stop-color="#06E775"></stop><stop offset="1" stop-color="#00F076"></stop></linearGradient></defs><path d="M50.224 5.992c-.739 0-1.362-.259-1.855-.768a2.614 2.614 0 0 1-.75-1.873c0-.744.253-1.373.75-1.872.49-.509 1.114-.767 1.853-.767a2.51 2.51 0 0 1 1.855.767 2.61 2.61 0 0 1 .75 1.872c-.009.745-.261 1.374-.75 1.871-.49.513-1.114.77-1.853.77Zm-21.993 0c-.723 0-1.35-.255-1.863-.758-.51-.5-.768-1.134-.768-1.881 0-.748.259-1.38.768-1.882.503-.503 1.13-.757 1.863-.757.358 0 .706.071 1.04.216.328.14.595.332.793.566l.048.059-.551.541-.057-.067c-.312-.37-.73-.552-1.281-.552A1.77 1.77 0 0 0 26.946 2c-.356.348-.538.804-.538 1.356s.182 1.008.538 1.356a1.77 1.77 0 0 0 1.277.521c.525 0 .967-.175 1.311-.521.204-.204.33-.489.375-.85h-1.77v-.76h2.53l.01.068c.018.129.036.261.036.383 0 .703-.212 1.27-.631 1.69-.477.497-1.1.75-1.853.75Zm29.242-.108h-.78l-2.388-3.822.02.688v3.132h-.78V.822h.89l.025.038 2.245 3.6-.02-.686V.822h.788v5.062Zm-13.109 0h-.79v-4.3h-1.37V.821h3.528v.761h-1.37v4.3h.002Zm-2.804 0h-.788V.822h.788v5.062Zm-4.429 0h-.788v-4.3h-1.37V.821h3.529v.761h-1.37v4.3Zm-2.657-.008h-3.022V.822h3.022v.761h-2.232v1.389h2.014v.753h-2.014v1.389h2.232v.762ZM48.948 4.7c.352.352.78.53 1.276.53a1.7 1.7 0 0 0 1.277-.53c.346-.346.521-.8.521-1.348s-.175-1.004-.519-1.348a1.747 1.747 0 0 0-1.277-.53c-.51 0-.928.173-1.274.53-.347.346-.522.8-.522 1.348 0 .547.173 1.004.517 1.348Z" fill="#fff"></path><path fill-rule="evenodd" clip-rule="evenodd" d="M47.547 12.951c-1.925 0-3.484 1.46-3.484 3.474 0 1.996 1.57 3.474 3.483 3.474 1.925 0 3.485-1.47 3.485-3.474 0-2.014-1.56-3.474-3.484-3.474Zm0 5.572c-1.053 0-1.96-.872-1.96-2.106 0-1.252.909-2.105 1.96-2.105 1.052 0 1.958.853 1.958 2.105.002 1.242-.906 2.106-1.959 2.106Zm-7.602-5.572c-1.924 0-3.484 1.46-3.484 3.474 0 1.996 1.57 3.474 3.484 3.474 1.925 0 3.484-1.47 3.484-3.474 0-2.014-1.562-3.474-3.484-3.474Zm0 5.572c-1.053 0-1.959-.872-1.959-2.106 0-1.252.909-2.105 1.96-2.105 1.052 0 1.958.853 1.958 2.105 0 1.242-.906 2.106-1.959 2.106Zm-9.045-4.51v1.47h3.53c-.109.824-.382 1.433-.8 1.85-.516.518-1.315 1.08-2.722 1.08-2.168 0-3.864-1.752-3.864-3.92 0-2.169 1.696-3.92 3.864-3.92 1.171 0 2.024.462 2.658 1.053l1.042-1.043c-.88-.843-2.05-1.488-3.691-1.488-2.975 0-5.472 2.423-5.472 5.39 0 2.975 2.495 5.39 5.472 5.39 1.606 0 2.812-.526 3.765-1.515.97-.972 1.278-2.342 1.278-3.448 0-.344-.026-.653-.081-.916h-4.98c.001-.002.001.016.001.016Zm36.996 1.144c-.29-.78-1.17-2.214-2.974-2.214-1.788 0-3.275 1.407-3.275 3.474 0 1.95 1.47 3.474 3.448 3.474 1.588 0 2.512-.971 2.893-1.541l-1.179-.79c-.39.58-.934.96-1.706.96-.78 0-1.326-.354-1.688-1.052l4.644-1.924-.162-.387Zm-4.736 1.16c-.036-1.341 1.043-2.024 1.815-2.024.608 0 1.115.3 1.288.735l-3.103 1.29Zm-3.773 3.366h1.525V9.478h-1.525v10.205Zm-2.504-5.96h-.055c-.345-.41-.998-.78-1.833-.78-1.733 0-3.33 1.525-3.33 3.484 0 1.951 1.589 3.458 3.33 3.458.825 0 1.489-.373 1.833-.79h.055v.499c0 1.325-.709 2.04-1.851 2.04-.935 0-1.515-.672-1.751-1.234l-1.326.554c.38.916 1.397 2.05 3.075 2.05 1.787 0 3.302-1.052 3.302-3.62V13.15h-1.441v.572h-.008Zm-1.752 4.8c-1.052 0-1.932-.88-1.932-2.096 0-1.226.88-2.113 1.932-2.113 1.043 0 1.851.898 1.851 2.113.01 1.216-.806 2.096-1.85 2.096Zm19.906-9.045h-3.646v10.205h1.525V15.82h2.124c1.688 0 3.347-1.224 3.347-3.167 0-1.942-1.653-3.174-3.35-3.174Zm.045 4.915h-2.168v-3.502h2.168c1.143 0 1.788.943 1.788 1.75 0 .801-.654 1.752-1.788 1.752Zm9.418-1.46c-1.108 0-2.25.49-2.723 1.56l1.352.562c.292-.562.825-.753 1.39-.753.79 0 1.587.472 1.606 1.315v.108a3.416 3.416 0 0 0-1.588-.391c-1.46 0-2.94.798-2.94 2.295 0 1.37 1.197 2.25 2.53 2.25 1.025 0 1.589-.463 1.94-.998h.056v.79h1.47v-3.91c0-1.82-1.352-2.828-3.093-2.828Zm-.192 5.59c-.498 0-1.197-.245-1.197-.872 0-.79.872-1.09 1.615-1.09.672 0 .99.145 1.389.345a1.836 1.836 0 0 1-1.806 1.617Zm8.648-5.372-1.75 4.427h-.056l-1.814-4.427h-1.641l2.722 6.188-1.552 3.44h1.589l4.188-9.628h-1.686Zm-13.728 6.532h1.525V9.478h-1.525v10.205Z" fill="#fff"></path><path fill-rule="evenodd" clip-rule="evenodd" d="M.434 1.339c-.236.254-.372.643-.372 1.152v18.056c0 .509.136.898.38 1.142l.064.055 10.116-10.116v-.226L.498 1.284l-.064.055Z" fill="url(#play_store_svg__play_store_paint0_linear)"></path><path fill-rule="evenodd" clip-rule="evenodd" d="m13.988 15.01-3.374-3.374V11.4l3.373-3.374.074.045 3.99 2.268c1.143.643 1.143 1.706 0 2.358l-3.99 2.268-.073.045Z" fill="url(#play_store_svg__play_store_paint1_linear)"></path><path fill-rule="evenodd" clip-rule="evenodd" d="m14.06 14.965-3.446-3.447L.434 21.697c.373.4.998.444 1.697.055l11.93-6.787Z" fill="url(#play_store_svg__play_store_paint2_linear)"></path><path fill-rule="evenodd" clip-rule="evenodd" d="M14.06 8.07 2.13 1.295C1.433.895.806.95.435 1.35l10.18 10.169L14.06 8.07Z" fill="url(#play_store_svg__play_store_paint3_linear)"></path><path opacity=".2" fill-rule="evenodd" clip-rule="evenodd" d="m13.988 14.892-11.85 6.732c-.661.38-1.252.354-1.632.008l-.063.063.063.055c.38.344.971.373 1.633-.008l11.93-6.777-.082-.073Z" fill="#000"></path><path opacity=".12" fill-rule="evenodd" clip-rule="evenodd" d="m18.052 12.579-4.075 2.313.074.073 3.99-2.268c.573-.326.854-.753.854-1.18-.035.392-.326.763-.843 1.062Z" fill="#000"></path><path opacity=".25" fill-rule="evenodd" clip-rule="evenodd" d="m2.13 1.412 15.922 9.045c.517.291.808.672.853 1.061 0-.426-.28-.853-.853-1.179L2.13 1.294C.988.64.06 1.186.06 2.491v.118c0-1.307.927-1.842 2.07-1.197Z" fill="#fff"></path></svg>