<svg xmlns="http://www.w3.org/2000/svg" viewBox="0 0 1057.39 368.87"><defs><style>.cls-1{fill:#fff;}</style></defs><g id="Camada_2" data-name="Camada 2"><g id="Layer_6" data-name="Layer 6"><path class="cls-1" d="M362.13,214.62l9.6-19.43a51.55,51.55,0,0,0,28.66,9.06c9.35,0,14.76-3.15,14.76-8.14,0-12.34-41.82-5.51-41.82-34.39,0-19.82,15.87-32.81,41.33-32.81,12.18,0,23.25,2.76,31,7.87l-8.85,19.3a42.2,42.2,0,0,0-23.62-7c-10.09,0-15.5,3.94-15.5,8.93-.13,12.6,41.82,5.38,41.82,33.73,0,19.69-16.24,32.68-41.46,32.68C383.29,224.46,369.88,220.26,362.13,214.62Z"/><path class="cls-1" d="M475.92,151.35H449.47l3.94-20.6h77.13l-3.94,20.6H500.28l-13.41,71.28H462.51Z"/><path class="cls-1" d="M580.11,204.77H543.45l-10,17.86H507.78L563,130.75h24l20.79,91.88H583.56Zm-3.69-19.16-5.78-29.79-16.49,29.79Z"/><path class="cls-1" d="M642.11,151.35H615.66l3.94-20.6h77.13l-3.94,20.6H666.46l-13.4,71.28H628.7Z"/><path class="cls-1" d="M721.45,151.35H695l3.94-20.6h77.13l-3.94,20.6H745.8l-13.4,71.28H708Z"/><path class="cls-1" d="M832.77,195.06l14.64,27.57H822l-12.8-24.42h-12.3l-4.55,24.42H767.94l17.23-91.88H822c22,0,34.69,10.89,34.69,29.27C856.64,177,847.78,189.55,832.77,195.06ZM818.5,151.22H805.71l-5.17,26.91h14.52c10.7,0,17-5.51,17-15.62C832,154.77,826.87,151.22,818.5,151.22Z"/><path class="cls-1" d="M921,204.77H884.31l-10,17.86H848.64l55.23-91.88h24l20.79,91.88H924.42Zm-3.69-19.16-5.78-29.79L895,185.61Z"/><path class="cls-1" d="M1013.1,173,1042,222.63h-27.18L995,189.55l-11.19,10.76-4.19,22.32h-24l17.22-91.88h24l-7,37.54,38.88-37.54h28.66Z"/><polygon class="cls-1" points="209.35 9.64 125.28 58.18 53.05 99.88 16.65 189.97 88.97 148.22 0 368.87 84.07 320.32 173.05 99.68 209.35 9.64"/><polygon class="cls-1" points="103.24 309.26 179.95 264.97 232.61 134.37 309.32 90.08 345.64 0 192.23 88.57 103.24 309.26"/></g></g></svg>